<?xml version="1.0" encoding="utf-8"?>
<!-- Generator: Adobe Illustrator 15.0.0, SVG Export Plug-In  -->
<!DOCTYPE svg PUBLIC "-//W3C//DTD SVG 1.1//EN" "http://www.w3.org/Graphics/SVG/1.1/DTD/svg11.dtd" [
	<!ENTITY ns_flows "http://ns.adobe.com/Flows/1.0/">
]>
<svg version="1.1"
	 xmlns="http://www.w3.org/2000/svg" xmlns:xlink="http://www.w3.org/1999/xlink" xmlns:a="http://ns.adobe.com/AdobeSVGViewerExtensions/3.0/"
	 x="0px" y="0px" width="800px" height="800px" viewBox="0 0 800 800" overflow="visible" enable-background="new 0 0 800 800"
	 xml:space="preserve">
<defs>
</defs>
<path fill-rule="evenodd" clip-rule="evenodd" fill="#235997" d="M800.698,400.351C800.698,179.246,621.462,0,400.348,0
	C179.246,0,0,179.246,0,400.351c0,221.107,179.246,400.351,400.348,400.351C621.462,800.702,800.698,621.458,800.698,400.351z"/>
<path fill-rule="evenodd" clip-rule="evenodd" fill="#002353" d="M93.268,657.199c73.442,87.709,183.737,143.503,307.08,143.503
	c123.346,0,233.642-55.794,307.092-143.503H93.268z"/>
<path fill-rule="evenodd" clip-rule="evenodd" fill="#003368" d="M21.039,528.78c16.061,47.409,40.765,90.844,72.229,128.419
	h614.172c31.452-37.575,56.161-81.01,72.217-128.419H21.039z"/>
<path fill-rule="evenodd" clip-rule="evenodd" fill="#0B4987" d="M0,400.351c0,44.919,7.398,88.116,21.039,128.429h758.618
	c13.647-40.313,21.042-83.51,21.042-128.429H0z"/>
<path fill-rule="evenodd" clip-rule="evenodd" fill="#DFDFDE" d="M518.264,295.755c-20.54-63.2-79.896-108.881-149.941-108.881
	c-70.044,0-129.411,45.682-149.945,108.871c-2.542-0.182-5.104-0.278-7.697-0.278c-58.042,0-105.091,47.057-105.091,105.095
	c0,58.045,47.049,105.091,105.091,105.091h315.281c58.036,0,105.094-47.046,105.094-105.091
	c0-58.038-47.058-105.095-105.094-105.095C523.371,295.466,520.809,295.569,518.264,295.755z"/>
<path fill-rule="evenodd" clip-rule="evenodd" fill="#C0C3C5" d="M105.588,400.561c0,58.045,47.049,105.091,105.091,105.091h315.281
	c58.036,0,105.094-47.046,105.094-105.091H105.588z"/>
<path fill-rule="evenodd" clip-rule="evenodd" fill="#DFDFDE" d="M596.632,480.405c-10.262-31.608-39.949-54.451-74.963-54.451
	c-35.022,0-64.71,22.843-74.979,54.44c-1.269-0.085-2.555-0.139-3.84-0.139c-29.028,0-52.548,23.526-52.548,52.546
	c0,29.026,23.52,52.546,52.548,52.546h157.639c29.018,0,52.546-23.52,52.546-52.546c0-29.02-23.528-52.546-52.546-52.546
	C599.186,480.256,597.907,480.31,596.632,480.405z"/>
<path fill-rule="evenodd" clip-rule="evenodd" fill="#C0C3C5" d="M390.303,532.802c0,29.026,23.52,52.546,52.548,52.546h157.639
	c29.018,0,52.546-23.52,52.546-52.546H390.303z"/>
</svg>
