<?xml version="1.0" encoding="utf-8"?>
<!-- Generator: Adobe Illustrator 15.0.0, SVG Export Plug-In  -->
<!DOCTYPE svg PUBLIC "-//W3C//DTD SVG 1.1//EN" "http://www.w3.org/Graphics/SVG/1.1/DTD/svg11.dtd" [
	<!ENTITY ns_flows "http://ns.adobe.com/Flows/1.0/">
]>
<svg version="1.1"
	 xmlns="http://www.w3.org/2000/svg" xmlns:xlink="http://www.w3.org/1999/xlink" xmlns:a="http://ns.adobe.com/AdobeSVGViewerExtensions/3.0/"
	 x="0px" y="0px" width="800px" height="800px" viewBox="0 0 800 800" overflow="visible" enable-background="new 0 0 800 800"
	 xml:space="preserve">
<defs>
</defs>
<path fill-rule="evenodd" clip-rule="evenodd" fill="#6459A5" d="M798.37,399.185C798.37,178.723,619.652,0,399.195,0
	C178.723,0,0,178.723,0,399.185C0,619.65,178.723,798.37,399.195,798.37C619.652,798.37,798.37,619.65,798.37,399.185z"/>
<path fill-rule="evenodd" clip-rule="evenodd" fill="#2B1C69" d="M92.996,655.285c73.226,87.455,183.21,143.085,306.199,143.085
	c122.985,0,232.96-55.63,306.189-143.085H92.996z"/>
<path fill-rule="evenodd" clip-rule="evenodd" fill="#3E2E87" d="M20.98,527.234c16.01,47.281,40.647,90.583,72.015,128.051h612.388
	c31.365-37.468,56.003-80.77,72.012-128.051H20.98z"/>
<path fill-rule="evenodd" clip-rule="evenodd" fill="#51479C" d="M0,399.185c0,44.791,7.38,87.853,20.98,128.049h756.415
	c13.602-40.196,20.975-83.259,20.975-128.049H0z"/>
<path fill-rule="evenodd" clip-rule="evenodd" fill="#FFCA11" d="M533.909,340.974c0-74.406-60.312-134.729-134.714-134.729
	c-74.406,0-134.727,60.323-134.727,134.729s60.321,134.725,134.727,134.725C473.597,475.699,533.909,415.38,533.909,340.974
	L533.909,340.974z M276.675,480.164l-28.736,28.735c-4.599,4.601-12.067,4.601-16.666,0c-4.601-4.604-4.601-12.067,0-16.668
	l28.733-28.733c4.601-4.601,12.06-4.601,16.668,0C281.273,468.097,281.273,475.565,276.675,480.164L276.675,480.164z
	 M538.389,463.498l28.724,28.733c4.601,4.601,4.601,12.063,0,16.668c-4.597,4.601-12.067,4.601-16.664,0l-28.735-28.735
	c-4.601-4.599-4.601-12.067,0-16.666C526.321,458.897,533.78,458.897,538.389,463.498L538.389,463.498z M410.983,526.035
	c0-6.507-5.284-11.787-11.789-11.787c-6.517,0-11.792,5.28-11.792,11.787v38.922c0,6.511,5.276,11.781,11.792,11.781
	c6.504,0,11.789-5.271,11.789-11.781V526.035L410.983,526.035z M584.252,329.184c-6.509,0-11.785,5.28-11.785,11.791
	s5.276,11.787,11.785,11.787h38.918c6.517,0,11.793-5.276,11.793-11.787s-5.276-11.791-11.793-11.791H584.252L584.252,329.184z
	 M175.206,329.184c-6.515,0-11.791,5.28-11.791,11.791s5.276,11.787,11.791,11.787h38.922c6.515,0,11.791-5.276,11.791-11.787
	s-5.276-11.791-11.791-11.791H175.206L175.206,329.184z M276.675,201.784c4.599,4.601,4.599,12.067,0,16.668
	c-4.609,4.599-12.067,4.599-16.668,0l-28.733-28.735c-4.601-4.601-4.601-12.067,0-16.668c4.599-4.604,12.067-4.604,16.666,0
	L276.675,201.784L276.675,201.784z M538.389,218.452c-4.608,4.599-12.067,4.599-16.676,0c-4.601-4.601-4.601-12.067,0-16.668
	l28.735-28.735c4.597-4.604,12.067-4.604,16.664,0c4.601,4.601,4.601,12.067,0,16.668L538.389,218.452L538.389,218.452z
	 M410.983,155.909c0,6.511-5.284,11.791-11.789,11.791c-6.517,0-11.792-5.28-11.792-11.791v-38.918
	c0-6.508,5.276-11.785,11.792-11.785c6.504,0,11.789,5.276,11.789,11.785V155.909z"/>
<path fill-rule="evenodd" clip-rule="evenodd" fill="#F69331" d="M264.468,340.974c0,74.406,60.321,134.725,134.727,134.725
	c74.402,0,134.714-60.319,134.714-134.725H264.468L264.468,340.974z M163.415,340.974h62.503c0,6.511-5.276,11.787-11.791,11.787
	h-38.922C168.691,352.761,163.415,347.485,163.415,340.974L163.415,340.974z M572.467,340.974h62.496
	c0,6.511-5.276,11.787-11.793,11.787h-38.918C577.743,352.761,572.467,347.485,572.467,340.974L572.467,340.974z M276.675,480.164
	l-28.736,28.735c-4.599,4.601-12.067,4.601-16.666,0c-4.601-4.604-4.601-12.067,0-16.668l28.733-28.733
	c4.601-4.601,12.06-4.601,16.668,0C281.273,468.097,281.273,475.565,276.675,480.164L276.675,480.164z M538.389,463.498
	l28.724,28.733c4.601,4.601,4.601,12.063,0,16.668c-4.597,4.601-12.067,4.601-16.664,0l-28.735-28.735
	c-4.601-4.599-4.601-12.067,0-16.666C526.321,458.897,533.78,458.897,538.389,463.498L538.389,463.498z M410.983,526.035
	c0-6.507-5.284-11.787-11.789-11.787c-6.517,0-11.792,5.28-11.792,11.787v38.922c0,6.511,5.276,11.781,11.792,11.781
	c6.504,0,11.789-5.271,11.789-11.781V526.035z"/>
<path fill-rule="evenodd" clip-rule="evenodd" fill="#DFDFDE" d="M548.697,470.541c-20.479-63.011-79.674-108.563-149.515-108.563
	c-69.828,0-129.022,45.548-149.502,108.563c-2.538-0.187-5.093-0.281-7.674-0.281c-57.868,0-104.786,46.913-104.786,104.786
	c0,57.871,46.918,104.784,104.786,104.784h314.358c57.875,0,104.786-46.913,104.786-104.784
	c0-57.873-46.911-104.786-104.786-104.786C553.781,470.26,551.237,470.354,548.697,470.541z"/>
<path fill-rule="evenodd" clip-rule="evenodd" fill="#C0C3C5" d="M137.22,575.046c0,57.871,46.918,104.784,104.786,104.784h314.358
	c57.875,0,104.794-46.913,104.794-104.784H137.22z"/>
</svg>
