<?xml version="1.0" encoding="utf-8"?>
<!-- Generator: Adobe Illustrator 15.0.0, SVG Export Plug-In  -->
<!DOCTYPE svg PUBLIC "-//W3C//DTD SVG 1.1//EN" "http://www.w3.org/Graphics/SVG/1.1/DTD/svg11.dtd" [
	<!ENTITY ns_flows "http://ns.adobe.com/Flows/1.0/">
]>
<svg version="1.1"
	 xmlns="http://www.w3.org/2000/svg" xmlns:xlink="http://www.w3.org/1999/xlink" xmlns:a="http://ns.adobe.com/AdobeSVGViewerExtensions/3.0/"
	 x="0px" y="0px" width="800px" height="800px" viewBox="0 0 800 800" overflow="visible" enable-background="new 0 0 800 800"
	 xml:space="preserve">
<defs>
</defs>
<path fill-rule="evenodd" clip-rule="evenodd" fill="#29758E" d="M799.252,399.627C799.252,178.921,620.339,0,399.635,0
	C178.921,0,0,178.921,0,399.627c0,220.706,178.921,399.627,399.635,399.627C620.339,799.254,799.252,620.333,799.252,399.627z"/>
<path fill-rule="evenodd" clip-rule="evenodd" fill="#003C50" d="M93.099,656.011c73.308,87.551,183.413,143.243,306.536,143.243
	c123.122,0,233.22-55.692,306.527-143.243H93.099z"/>
<path fill-rule="evenodd" clip-rule="evenodd" fill="#004D62" d="M21.004,527.824c16.027,47.325,40.69,90.679,72.095,128.187
	h613.063c31.404-37.508,56.067-80.861,72.097-128.187H21.004z"/>
<path fill-rule="evenodd" clip-rule="evenodd" fill="#145F76" d="M0,399.627c0,44.837,7.387,87.958,21.004,128.197h757.254
	c13.614-40.239,20.993-83.36,20.993-128.197H0z"/>
<path fill-rule="evenodd" clip-rule="evenodd" fill="#DFDFDE" d="M517.327,295.219c-20.5-63.083-79.751-108.682-149.668-108.682
	c-69.917,0-129.176,45.599-149.679,108.674c-2.531-0.181-5.09-0.278-7.675-0.278c-57.939,0-104.91,46.971-104.91,104.902
	c0,57.941,46.971,104.904,104.91,104.904h314.705c57.943,0,104.904-46.963,104.904-104.904c0-57.931-46.961-104.902-104.904-104.902
	C522.428,294.933,519.869,295.038,517.327,295.219z"/>
<path fill-rule="evenodd" clip-rule="evenodd" fill="#C0C3C5" d="M105.396,399.835c0,57.941,46.971,104.904,104.91,104.904h314.705
	c57.935,0,104.904-46.963,104.904-104.904H105.396z"/>
<path fill-rule="evenodd" clip-rule="evenodd" fill="#DFDFDE" d="M595.561,479.535c-10.25-31.551-39.873-54.351-74.832-54.351
	c-34.958,0-64.594,22.8-74.844,54.342c-1.267-0.086-2.542-0.138-3.834-0.138c-28.974,0-52.46,23.484-52.46,52.45
	c0,28.976,23.486,52.452,52.46,52.452h157.352c28.97,0,52.452-23.477,52.452-52.452c0-28.966-23.482-52.45-52.452-52.45
	C598.111,479.389,596.828,479.44,595.561,479.535z"/>
<path fill-rule="evenodd" clip-rule="evenodd" fill="#C0C3C5" d="M389.591,531.839c0,28.976,23.486,52.452,52.46,52.452h157.352
	c28.97,0,52.452-23.477,52.452-52.452H389.591z"/>
<path fill-rule="evenodd" clip-rule="evenodd" fill="#C0C3C5" d="M221.312,562.149c2.669-4.457,8.446-5.904,12.903-3.243
	c4.467,2.671,5.915,8.446,3.243,12.905l-47.95,79.935c-2.669,4.458-8.446,5.906-12.914,3.241c-4.457-2.67-5.904-8.453-3.243-12.912
	L221.312,562.149z"/>
<path fill-rule="evenodd" clip-rule="evenodd" fill="#C0C3C5" d="M309.233,546.167c2.671-4.458,8.446-5.915,12.905-3.245
	c4.465,2.663,5.915,8.448,3.243,12.905l-47.958,79.927c-2.663,4.456-8.438,5.914-12.905,3.243
	c-4.457-2.664-5.906-8.447-3.243-12.905L309.233,546.167z"/>
<path fill-rule="evenodd" clip-rule="evenodd" fill="#C0C3C5" d="M397.155,610.107c2.669-4.457,8.444-5.904,12.903-3.243
	c4.459,2.672,5.915,8.446,3.245,12.913l-47.96,79.925c-2.661,4.458-8.436,5.915-12.903,3.245c-4.459-2.674-5.907-8.448-3.246-12.903
	L397.155,610.107z"/>
<path fill-rule="evenodd" clip-rule="evenodd" fill="#C0C3C5" d="M472.683,627.418c2.669-4.457,8.448-5.915,12.911-3.243
	c4.459,2.663,5.906,8.446,3.245,12.905l-23.979,39.962c-2.67,4.459-8.445,5.915-12.903,3.245c-4.468-2.673-5.915-8.448-3.246-12.907
	L472.683,627.418z"/>
</svg>
