<?xml version="1.0" encoding="utf-8"?>
<!-- Generator: Adobe Illustrator 15.0.0, SVG Export Plug-In  -->
<!DOCTYPE svg PUBLIC "-//W3C//DTD SVG 1.1//EN" "http://www.w3.org/Graphics/SVG/1.1/DTD/svg11.dtd" [
	<!ENTITY ns_flows "http://ns.adobe.com/Flows/1.0/">
]>
<svg version="1.1"
	 xmlns="http://www.w3.org/2000/svg" xmlns:xlink="http://www.w3.org/1999/xlink" xmlns:a="http://ns.adobe.com/AdobeSVGViewerExtensions/3.0/"
	 x="0px" y="0px" width="800px" height="800px" viewBox="0 0 800 800" overflow="visible" enable-background="new 0 0 800 800"
	 xml:space="preserve">
<defs>
</defs>
<path fill-rule="evenodd" clip-rule="evenodd" fill="#4F3091" d="M799.847,399.92C799.847,179.052,620.785,0,399.92,0
	C179.054,0,0,179.052,0,399.92c0,220.875,179.054,399.92,399.92,399.92C620.785,799.841,799.847,620.796,799.847,399.92z"/>
<path fill-rule="evenodd" clip-rule="evenodd" fill="#3F3091" d="M93.169,656.493c73.36,87.621,183.538,143.348,306.751,143.348
	c123.21,0,233.395-55.727,306.75-143.348H93.169z"/>
<path fill-rule="evenodd" clip-rule="evenodd" fill="#492F91" d="M21.016,528.208c16.042,47.369,40.721,90.748,72.154,128.285h613.5
	c31.435-37.537,56.117-80.916,72.157-128.285H21.016z"/>
<path fill-rule="evenodd" clip-rule="evenodd" fill="#4B2F91" d="M0,399.92c0,44.875,7.391,88.019,21.016,128.288h757.812
	c13.627-40.269,21.02-83.413,21.02-128.288H0z"/>
<path fill-rule="evenodd" clip-rule="evenodd" fill="#FFCA11" d="M534.899,399.92c0-74.541-60.431-134.974-134.975-134.974
	c-74.545,0-134.976,60.433-134.976,134.974c0,74.546,60.431,134.974,134.976,134.974
	C474.469,534.895,534.899,474.467,534.899,399.92L534.899,399.92z M277.176,539.367l-28.787,28.794
	c-4.609,4.607-12.085,4.607-16.694,0c-4.608-4.613-4.608-12.091,0-16.701l28.783-28.786c4.612-4.612,12.089-4.612,16.697,0
	C281.786,527.284,281.786,534.759,277.176,539.367L277.176,539.367z M539.378,522.674l28.78,28.786
	c4.605,4.61,4.605,12.088,0,16.701c-4.619,4.607-12.093,4.607-16.698,0l-28.781-28.794c-4.616-4.608-4.616-12.083,0-16.693
	C527.28,518.062,534.759,518.062,539.378,522.674L539.378,522.674z M411.729,585.323c0-6.519-5.285-11.804-11.804-11.804
	c-6.526,0-11.811,5.285-11.811,11.804v38.992c0,6.523,5.285,11.809,11.811,11.809c6.519,0,11.804-5.285,11.804-11.809V585.323
	L411.729,585.323z M585.323,388.118c-6.519,0-11.804,5.285-11.804,11.803c0,6.523,5.285,11.812,11.804,11.812h38.992
	c6.519,0,11.813-5.289,11.813-11.812c0-6.518-5.295-11.803-11.813-11.803H585.323L585.323,388.118z M175.522,388.118
	c-6.523,0-11.808,5.285-11.808,11.803c0,6.523,5.285,11.812,11.808,11.812h38.997c6.519,0,11.812-5.289,11.812-11.812
	c0-6.518-5.293-11.803-11.812-11.803H175.522L175.522,388.118z M277.176,260.479c4.61,4.607,4.61,12.084,0,16.693
	c-4.608,4.614-12.085,4.614-16.697,0l-28.783-28.788c-4.608-4.607-4.608-12.085,0-16.698c4.608-4.607,12.085-4.607,16.694,0
	L277.176,260.479L277.176,260.479z M539.378,277.171c-4.619,4.614-12.098,4.614-16.699,0c-4.616-4.609-4.616-12.085,0-16.693
	l28.781-28.793c4.605-4.607,12.079-4.607,16.698,0c4.605,4.613,4.605,12.091,0,16.698L539.378,277.171L539.378,277.171z
	 M411.729,214.519c0,6.521-5.285,11.809-11.804,11.809c-6.526,0-11.811-5.287-11.811-11.809v-38.99
	c0-6.521,5.285-11.811,11.811-11.811c6.519,0,11.804,5.29,11.804,11.811V214.519z"/>
<path fill-rule="evenodd" clip-rule="evenodd" fill="#F69331" d="M264.949,399.92c0,74.546,60.431,134.974,134.976,134.974
	c74.544,0,134.975-60.428,134.975-134.974H264.949L264.949,399.92z M163.714,399.92h62.618c0,6.523-5.293,11.812-11.812,11.812
	h-38.997C168.999,411.732,163.714,406.443,163.714,399.92L163.714,399.92z M573.52,399.92h62.609
	c0,6.523-5.295,11.812-11.813,11.812h-38.992C578.805,411.732,573.52,406.443,573.52,399.92L573.52,399.92z M277.176,539.367
	l-28.787,28.794c-4.609,4.607-12.085,4.607-16.694,0c-4.608-4.613-4.608-12.091,0-16.701l28.783-28.786
	c4.612-4.612,12.089-4.612,16.697,0C281.786,527.284,281.786,534.759,277.176,539.367L277.176,539.367z M539.378,522.674
	l28.78,28.786c4.605,4.61,4.605,12.088,0,16.701c-4.619,4.607-12.093,4.607-16.698,0l-28.781-28.794
	c-4.616-4.608-4.616-12.083,0-16.693C527.28,518.062,534.759,518.062,539.378,522.674L539.378,522.674z M411.729,585.323
	c0-6.519-5.285-11.804-11.804-11.804c-6.526,0-11.811,5.285-11.811,11.804v38.992c0,6.523,5.285,11.809,11.811,11.809
	c6.519,0,11.804-5.285,11.804-11.809V585.323z"/>
</svg>
